<svg width="200" height="35" viewBox="0 0 200 35" fill="none" xmlns="http://www.w3.org/2000/svg">
<path d="M1.61 8.521C1.61 8.30633 1.656 8.153 1.748 8.061C1.85533 7.95367 2.01633 7.9 2.231 7.9H5.336C5.566 7.9 5.727 7.95367 5.819 8.061C5.92633 8.153 5.98 8.30633 5.98 8.521V23.379C5.98 23.5937 5.92633 23.7547 5.819 23.862C5.727 23.954 5.566 24 5.336 24H2.231C2.01633 24 1.85533 23.954 1.748 23.862C1.656 23.7547 1.61 23.5937 1.61 23.379V8.521ZM6.555 16.433C6.417 16.2183 6.348 16.042 6.348 15.904C6.348 15.72 6.42467 15.5207 6.578 15.306L11.178 8.544C11.3467 8.28333 11.5 8.11467 11.638 8.038C11.7913 7.946 12.0213 7.9 12.328 7.9H15.916C16.0847 7.9 16.2073 7.93067 16.284 7.992C16.376 8.05333 16.422 8.13 16.422 8.222C16.422 8.32933 16.376 8.452 16.284 8.59L11.132 15.743L16.491 23.31C16.5983 23.4633 16.652 23.5937 16.652 23.701C16.652 23.793 16.606 23.8697 16.514 23.931C16.422 23.977 16.2917 24 16.123 24H12.443C12.121 24 11.8833 23.9617 11.73 23.885C11.592 23.8083 11.4387 23.6397 11.27 23.379L6.555 16.433ZM24.0036 8.728C24.2336 8.28333 24.4329 7.97667 24.6016 7.808C24.7856 7.624 24.9926 7.532 25.2226 7.532C25.4372 7.532 25.6289 7.624 25.7976 7.808C25.9816 7.97667 26.1886 8.28333 26.4186 8.728L33.7556 23.241C33.8476 23.3943 33.8936 23.5323 33.8936 23.655C33.8936 23.885 33.7172 24 33.3646 24H17.0806C16.7279 24 16.5516 23.885 16.5516 23.655C16.5516 23.517 16.5899 23.379 16.6666 23.241L24.0036 8.728ZM25.1306 14.685L22.5776 20.205H27.7066L25.1306 14.685ZM35.3913 8.521C35.3913 8.30633 35.4373 8.153 35.5293 8.061C35.6366 7.95367 35.7976 7.9 36.0123 7.9H41.5323C43.9856 7.9 45.8103 8.34467 47.0063 9.234C48.2023 10.108 48.8003 11.4727 48.8003 13.328C48.8003 15.2447 47.9186 16.6323 46.1553 17.491L49.6283 23.264C49.7203 23.4173 49.7663 23.5477 49.7663 23.655C49.7663 23.885 49.5746 24 49.1913 24H45.9023C45.5649 24 45.3119 23.954 45.1433 23.862C44.9899 23.77 44.8289 23.5783 44.6603 23.287L41.0953 16.962C41.0186 16.8087 40.9803 16.6937 40.9803 16.617C40.9803 16.4483 41.1413 16.3333 41.4633 16.272C42.3066 16.1647 42.9889 15.9117 43.5103 15.513C44.0316 15.099 44.2923 14.5317 44.2923 13.811C44.2923 13.0443 44.0393 12.4847 43.5333 12.132C43.0426 11.764 42.2989 11.58 41.3023 11.58H40.1293C39.9759 11.58 39.8763 11.603 39.8303 11.649C39.7843 11.695 39.7613 11.7947 39.7613 11.948V23.379C39.7613 23.5937 39.7076 23.7547 39.6003 23.862C39.5083 23.954 39.3473 24 39.1173 24H36.0123C35.7976 24 35.6366 23.954 35.5293 23.862C35.4373 23.7547 35.3913 23.5937 35.3913 23.379V8.521ZM57.2008 8.728C57.4308 8.28333 57.6302 7.97667 57.7988 7.808C57.9828 7.624 58.1898 7.532 58.4198 7.532C58.6345 7.532 58.8262 7.624 58.9948 7.808C59.1788 7.97667 59.3858 8.28333 59.6158 8.728L66.9528 23.241C67.0448 23.3943 67.0908 23.5323 67.0908 23.655C67.0908 23.885 66.9145 24 66.5618 24H50.2778C49.9252 24 49.7488 23.885 49.7488 23.655C49.7488 23.517 49.7872 23.379 49.8638 23.241L57.2008 8.728ZM58.3278 14.685L55.7748 20.205H60.9038L58.3278 14.685ZM65.9435 25.288C65.9588 25.0887 65.9972 24.9507 66.0585 24.874C66.1198 24.7973 66.2272 24.759 66.3805 24.759C66.5032 24.759 66.6718 24.7667 66.8865 24.782C67.0858 24.8127 67.2545 24.828 67.3925 24.828C67.9138 24.828 68.3125 24.644 68.5885 24.276C68.8798 23.908 69.0255 23.3713 69.0255 22.666V8.521C69.0255 8.30633 69.0715 8.153 69.1635 8.061C69.2708 7.95367 69.4318 7.9 69.6465 7.9H72.7745C72.9892 7.9 73.1425 7.95367 73.2345 8.061C73.3418 8.153 73.3955 8.30633 73.3955 8.521V22.919C73.3955 24.759 72.9738 26.185 72.1305 27.197C71.2872 28.209 69.9608 28.715 68.1515 28.715C67.2928 28.715 66.6258 28.6537 66.1505 28.531C65.9358 28.4697 65.7978 28.3853 65.7365 28.278C65.6598 28.186 65.6292 28.0327 65.6445 27.818L65.9435 25.288ZM82.2672 8.728C82.4972 8.28333 82.6966 7.97667 82.8652 7.808C83.0492 7.624 83.2562 7.532 83.4862 7.532C83.7009 7.532 83.8926 7.624 84.0612 7.808C84.2452 7.97667 84.4522 8.28333 84.6822 8.728L92.0192 23.241C92.1112 23.3943 92.1572 23.5323 92.1572 23.655C92.1572 23.885 91.9809 24 91.6282 24H75.3442C74.9916 24 74.8152 23.885 74.8152 23.655C74.8152 23.517 74.8536 23.379 74.9302 23.241L82.2672 8.728ZM83.3942 14.685L80.8412 20.205H85.9702L83.3942 14.685ZM99.9889 8.521C99.9889 8.30633 100.035 8.153 100.127 8.061C100.234 7.95367 100.395 7.9 100.61 7.9H106.498C108.369 7.9 109.963 8.222 111.282 8.866C112.616 9.51 113.628 10.4223 114.318 11.603C115.008 12.7837 115.353 14.1713 115.353 15.766C115.353 17.4373 114.985 18.894 114.249 20.136C113.528 21.3627 112.47 22.3133 111.075 22.988C109.695 23.6627 108.031 24 106.084 24H100.61C100.395 24 100.234 23.954 100.127 23.862C100.035 23.7547 99.9889 23.5937 99.9889 23.379V8.521ZM106.084 20.067C107.648 20.067 108.829 19.699 109.626 18.963C110.439 18.227 110.845 17.1997 110.845 15.881C110.845 15.053 110.669 14.34 110.316 13.742C109.963 13.1287 109.434 12.661 108.729 12.339C108.039 12.0017 107.188 11.833 106.176 11.833H104.727C104.574 11.833 104.474 11.8637 104.428 11.925C104.382 11.971 104.359 12.063 104.359 12.201V19.699C104.359 19.837 104.382 19.9367 104.428 19.998C104.474 20.044 104.574 20.067 104.727 20.067H106.084ZM117.778 8.521C117.778 8.30633 117.824 8.153 117.916 8.061C118.023 7.95367 118.184 7.9 118.399 7.9H121.504C121.734 7.9 121.895 7.95367 121.987 8.061C122.094 8.153 122.148 8.30633 122.148 8.521V23.379C122.148 23.5937 122.094 23.7547 121.987 23.862C121.895 23.954 121.734 24 121.504 24H118.399C118.184 24 118.023 23.954 117.916 23.862C117.824 23.7547 117.778 23.5937 117.778 23.379V8.521ZM135.789 16.433C135.789 16.2183 135.835 16.0573 135.927 15.95C136.034 15.8427 136.195 15.789 136.41 15.789H139.538C139.752 15.789 139.906 15.8427 139.998 15.95C140.105 16.0573 140.159 16.2183 140.159 16.433V21.792C140.159 22.0373 140.113 22.229 140.021 22.367C139.944 22.505 139.798 22.6353 139.584 22.758C138.572 23.264 137.537 23.655 136.479 23.931C135.436 24.1917 134.34 24.322 133.19 24.322C131.549 24.322 130.069 23.9847 128.751 23.31C127.447 22.62 126.42 21.654 125.669 20.412C124.933 19.17 124.565 17.7363 124.565 16.111C124.565 14.4243 124.94 12.937 125.692 11.649C126.443 10.361 127.486 9.36433 128.82 8.659C130.169 7.93833 131.695 7.578 133.397 7.578C134.531 7.578 135.612 7.739 136.64 8.061C137.682 8.383 138.618 8.82767 139.446 9.395C139.722 9.579 139.86 9.77067 139.86 9.97C139.86 10.108 139.798 10.2613 139.676 10.43L138.388 12.454C138.219 12.7147 138.043 12.845 137.859 12.845C137.721 12.845 137.567 12.7913 137.399 12.684C136.785 12.3313 136.157 12.063 135.513 11.879C134.869 11.695 134.179 11.603 133.443 11.603C132.538 11.603 131.756 11.7947 131.097 12.178C130.437 12.546 129.931 13.0673 129.579 13.742C129.241 14.4013 129.073 15.1527 129.073 15.996C129.073 16.8393 129.249 17.5983 129.602 18.273C129.954 18.9323 130.445 19.446 131.074 19.814C131.718 20.182 132.446 20.366 133.259 20.366C134.133 20.366 134.853 20.251 135.421 20.021C135.559 19.975 135.651 19.9213 135.697 19.86C135.758 19.7833 135.789 19.6683 135.789 19.515V16.433ZM142.934 8.521C142.934 8.30633 142.98 8.153 143.072 8.061C143.18 7.95367 143.341 7.9 143.555 7.9H146.66C146.89 7.9 147.051 7.95367 147.143 8.061C147.251 8.153 147.304 8.30633 147.304 8.521V23.379C147.304 23.5937 147.251 23.7547 147.143 23.862C147.051 23.954 146.89 24 146.66 24H143.555C143.341 24 143.18 23.954 143.072 23.862C142.98 23.7547 142.934 23.5937 142.934 23.379V8.521ZM153.723 12.247C153.723 12.109 153.692 12.017 153.631 11.971C153.585 11.9097 153.493 11.879 153.355 11.879H149.882C149.468 11.879 149.261 11.672 149.261 11.258V8.521C149.261 8.107 149.468 7.9 149.882 7.9H161.934C162.149 7.9 162.302 7.95367 162.394 8.061C162.501 8.153 162.555 8.30633 162.555 8.521V11.258C162.555 11.4727 162.501 11.6337 162.394 11.741C162.302 11.833 162.149 11.879 161.934 11.879H158.461C158.323 11.879 158.223 11.9097 158.162 11.971C158.116 12.017 158.093 12.109 158.093 12.247V23.379C158.093 23.5937 158.039 23.7547 157.932 23.862C157.84 23.954 157.687 24 157.472 24H154.344C154.129 24 153.968 23.954 153.861 23.862C153.769 23.7547 153.723 23.5937 153.723 23.379V12.247ZM169.124 8.728C169.354 8.28333 169.553 7.97667 169.722 7.808C169.906 7.624 170.113 7.532 170.343 7.532C170.557 7.532 170.749 7.624 170.918 7.808C171.102 7.97667 171.309 8.28333 171.539 8.728L178.876 23.241C178.968 23.3943 179.014 23.5323 179.014 23.655C179.014 23.885 178.837 24 178.485 24H162.201C161.848 24 161.672 23.885 161.672 23.655C161.672 23.517 161.71 23.379 161.787 23.241L169.124 8.728ZM170.251 14.685L167.698 20.205H172.827L170.251 14.685ZM180.511 8.521C180.511 8.30633 180.557 8.153 180.649 8.061C180.757 7.95367 180.918 7.9 181.132 7.9H184.237C184.467 7.9 184.628 7.95367 184.72 8.061C184.828 8.153 184.881 8.30633 184.881 8.521V19.653C184.881 19.791 184.904 19.8907 184.95 19.952C184.996 19.998 185.096 20.021 185.249 20.021H190.953C191.168 20.021 191.321 20.0747 191.413 20.182C191.521 20.274 191.574 20.4273 191.574 20.642V23.379C191.574 23.5937 191.521 23.7547 191.413 23.862C191.321 23.954 191.168 24 190.953 24H181.132C180.918 24 180.757 23.954 180.649 23.862C180.557 23.7547 180.511 23.5937 180.511 23.379V8.521Z" fill="white"/>
</svg>
